<svg width="206" height="31" viewBox="0 0 206 31" fill="none" xmlns="http://www.w3.org/2000/svg">
<path d="M12.105 30.015C9.735 30.015 7.635 29.505 5.805 28.485C4.005 27.465 2.58 26.055 1.53 24.255C0.509998 22.455 -1.72108e-06 20.4 -1.72108e-06 18.09C-1.72108e-06 15.75 0.479998 13.695 1.44 11.925C2.43 10.125 3.78 8.715 5.49 7.695C7.2 6.675 9.12 6.165 11.25 6.165C13.38 6.165 15.285 6.66 16.965 7.65C18.675 8.64 20.01 10.035 20.97 11.835C21.96 13.605 22.455 15.66 22.455 18C22.455 18.09 22.44 18.195 22.41 18.315C22.41 18.405 22.41 18.51 22.41 18.63H1.665V16.875H21.195L20.295 17.73C20.325 15.9 19.935 14.265 19.125 12.825C18.345 11.355 17.28 10.215 15.93 9.405C14.58 8.565 13.02 8.145 11.25 8.145C9.51 8.145 7.95 8.565 6.57 9.405C5.22 10.215 4.155 11.355 3.375 12.825C2.595 14.265 2.205 15.915 2.205 17.775V18.18C2.205 20.1 2.625 21.81 3.465 23.31C4.335 24.78 5.52 25.935 7.02 26.775C8.52 27.585 10.23 27.99 12.15 27.99C13.65 27.99 15.045 27.72 16.335 27.18C17.655 26.64 18.765 25.815 19.665 24.705L20.97 26.19C19.95 27.45 18.66 28.41 17.1 29.07C15.57 29.7 13.905 30.015 12.105 30.015ZM40.8906 6.165C42.8106 6.165 44.4756 6.54 45.8856 7.29C47.3256 8.01 48.4356 9.12 49.2156 10.62C50.0256 12.09 50.4306 13.92 50.4306 16.11V29.835H48.1806V16.29C48.1806 13.65 47.5056 11.64 46.1556 10.26C44.8356 8.88 42.9756 8.19 40.5756 8.19C38.7456 8.19 37.1556 8.565 35.8056 9.315C34.4556 10.065 33.4206 11.115 32.7006 12.465C32.0106 13.815 31.6656 15.435 31.6656 17.325V29.835H29.4156V6.345H31.5756V12.87L31.2606 12.15C31.9806 10.29 33.1656 8.835 34.8156 7.785C36.4656 6.705 38.4906 6.165 40.8906 6.165ZM63.4739 29.835L54.7889 5.445H62.8889L69.7739 25.83H65.9039L73.0589 5.445H80.3489L87.2339 25.83H83.4539L90.5639 5.445H98.0789L89.3939 29.835H81.1139L75.2639 12.96H77.7839L71.7539 29.835H63.4739ZM112.812 30.24C109.932 30.24 107.412 29.7 105.252 28.62C103.122 27.51 101.457 26.01 100.257 24.12C99.0872 22.2 98.5022 20.025 98.5022 17.595C98.5022 15.165 99.0722 13.005 100.212 11.115C101.382 9.195 102.987 7.71 105.027 6.66C107.067 5.58 109.362 5.04 111.912 5.04C114.312 5.04 116.502 5.535 118.482 6.525C120.462 7.485 122.037 8.91 123.207 10.8C124.377 12.69 124.962 14.985 124.962 17.685C124.962 17.985 124.947 18.33 124.917 18.72C124.887 19.11 124.857 19.47 124.827 19.8H105.522V15.3H120.282L117.042 16.56C117.072 15.45 116.862 14.49 116.412 13.68C115.992 12.87 115.392 12.24 114.612 11.79C113.862 11.34 112.977 11.115 111.957 11.115C110.937 11.115 110.037 11.34 109.257 11.79C108.507 12.24 107.922 12.885 107.502 13.725C107.082 14.535 106.872 15.495 106.872 16.605V17.91C106.872 19.11 107.112 20.145 107.592 21.015C108.102 21.885 108.822 22.56 109.752 23.04C110.682 23.49 111.792 23.715 113.082 23.715C114.282 23.715 115.302 23.55 116.142 23.22C117.012 22.86 117.867 22.32 118.707 21.6L123.207 26.28C122.037 27.57 120.597 28.56 118.887 29.25C117.177 29.91 115.152 30.24 112.812 30.24ZM144.789 5.04C146.679 5.04 148.389 5.43 149.919 6.21C151.449 6.96 152.649 8.13 153.519 9.72C154.419 11.31 154.869 13.365 154.869 15.885V29.835H146.319V17.28C146.319 15.54 145.959 14.28 145.239 13.5C144.549 12.69 143.574 12.285 142.314 12.285C141.414 12.285 140.589 12.495 139.839 12.915C139.089 13.305 138.504 13.92 138.084 14.76C137.664 15.6 137.454 16.695 137.454 18.045V29.835H128.904V5.445H137.049V12.375L135.474 10.35C136.404 8.58 137.679 7.26 139.299 6.39C140.919 5.49 142.749 5.04 144.789 5.04ZM171.127 30.24C168.007 30.24 165.577 29.475 163.837 27.945C162.097 26.385 161.227 24.045 161.227 20.925V-3.03984e-06H169.777V20.835C169.777 21.705 170.017 22.395 170.497 22.905C170.977 23.385 171.592 23.625 172.342 23.625C173.362 23.625 174.232 23.37 174.952 22.86L177.067 28.845C176.347 29.325 175.462 29.67 174.412 29.88C173.362 30.12 172.267 30.24 171.127 30.24ZM157.672 12.735V6.345H175.357V12.735H157.672ZM191.901 30.24C189.231 30.24 186.861 29.7 184.791 28.62C182.721 27.54 181.086 26.055 179.886 24.165C178.716 22.245 178.131 20.055 178.131 17.595C178.131 15.135 178.716 12.96 179.886 11.07C181.086 9.18 182.721 7.71 184.791 6.66C186.861 5.58 189.231 5.04 191.901 5.04C194.571 5.04 196.941 5.58 199.011 6.66C201.111 7.71 202.746 9.18 203.916 11.07C205.086 12.96 205.671 15.135 205.671 17.595C205.671 20.055 205.086 22.245 203.916 24.165C202.746 26.055 201.111 27.54 199.011 28.62C196.941 29.7 194.571 30.24 191.901 30.24ZM191.901 23.445C192.891 23.445 193.761 23.22 194.511 22.77C195.291 22.32 195.906 21.66 196.356 20.79C196.806 19.89 197.031 18.825 197.031 17.595C197.031 16.365 196.806 15.33 196.356 14.49C195.906 13.62 195.291 12.96 194.511 12.51C193.761 12.06 192.891 11.835 191.901 11.835C190.941 11.835 190.071 12.06 189.291 12.51C188.541 12.96 187.926 13.62 187.446 14.49C186.996 15.33 186.771 16.365 186.771 17.595C186.771 18.825 186.996 19.89 187.446 20.79C187.926 21.66 188.541 22.32 189.291 22.77C190.071 23.22 190.941 23.445 191.901 23.445Z" fill="white"/>
</svg>
